<?xml version="1.0" standalone="no"?>
<!DOCTYPE svg PUBLIC "-//W3C//DTD SVG 20010904//EN"
 "http://www.w3.org/TR/2001/REC-SVG-20010904/DTD/svg10.dtd">
<svg version="1.0" xmlns="http://www.w3.org/2000/svg"
 width="1280.000000pt" height="853.000000pt" viewBox="0 0 1280.000000 853.000000"
 preserveAspectRatio="xMidYMid meet">
<metadata>
Created by potrace 1.15, written by Peter Selinger 2001-2017
</metadata>
<g transform="translate(0.000000,853.000000) scale(0.100000,-0.100000)"
fill="#000000" stroke="none">
<path d="M5805 7601 c-11 -5 -27 -17 -36 -27 -24 -28 -579 -982 -591 -1016 -8
-22 -6 -39 6 -71 9 -23 141 -260 294 -527 215 -375 284 -488 307 -501 27 -16
88 -18 622 -21 588 -3 592 -3 620 18 18 13 136 206 321 524 229 392 294 511
294 538 0 26 -66 149 -290 540 -179 313 -300 514 -316 527 -27 19 -42 20 -619
22 -326 1 -601 -2 -612 -6z m950 -150 l200 -6 262 -455 c143 -250 261 -462
261 -470 0 -8 -120 -220 -266 -470 l-267 -455 -510 -3 c-280 -1 -524 0 -542 3
-31 5 -45 29 -297 470 l-265 464 272 465 271 466 341 -1 c187 -1 430 -4 540
-8z"/>
<path d="M3885 6481 c-11 -5 -27 -17 -36 -27 -9 -11 -145 -242 -304 -514 -235
-404 -288 -501 -288 -531 0 -30 56 -134 293 -549 262 -459 296 -514 326 -526
27 -11 116 -14 436 -15 222 0 489 -4 593 -9 207 -8 217 -6 254 50 10 16 2 11
-22 -13 -22 -21 -47 -37 -60 -36 -14 0 -16 2 -7 6 44 14 65 33 92 80 17 29 34
51 39 47 5 -3 6 3 2 12 -5 13 -3 15 7 9 9 -5 11 -4 6 3 -10 16 12 54 26 46 7
-4 8 -3 4 4 -10 16 12 54 26 46 7 -4 8 -2 4 5 -10 15 64 142 77 134 6 -3 7 -1
3 5 -10 16 12 54 26 46 7 -4 8 -3 4 4 -10 16 12 54 26 46 7 -4 8 -3 4 4 -10
16 22 74 36 66 7 -4 8 -3 4 4 -10 16 12 54 26 46 7 -4 8 -3 4 4 -10 16 22 74
36 66 7 -4 8 -3 4 4 -9 14 82 174 95 167 5 -4 6 2 2 11 -4 12 -3 15 5 10 7 -4
10 -2 7 6 -3 7 11 38 30 68 37 59 48 64 14 6 -12 -20 -19 -36 -16 -36 10 0 48
70 43 79 -3 5 1 26 10 46 9 22 13 49 9 64 -9 36 -565 1007 -593 1036 -12 12
-36 25 -53 29 -47 9 -1171 6 -1194 -3z m1151 -154 c1 -1 119 -209 264 -461
220 -385 261 -463 254 -482 -5 -13 -126 -223 -269 -468 l-260 -446 -376 0
c-207 0 -450 3 -541 7 l-165 6 -204 356 c-279 488 -320 562 -317 577 2 7 122
218 268 469 l265 457 540 -7 c297 -3 540 -7 541 -8z"/>
<path d="M7734 6466 c-37 -17 -31 -7 -360 -571 -231 -395 -268 -466 -268 -500
0 -34 43 -116 289 -544 189 -329 300 -512 318 -525 28 -21 40 -21 620 -24 550
-2 594 -1 620 15 21 13 111 158 323 523 162 277 295 514 295 525 1 11 0 29 -1
40 -1 11 -133 249 -293 528 -209 365 -299 512 -317 522 -39 20 -1183 31 -1226
11z m1413 -611 c145 -253 263 -464 263 -469 0 -6 -120 -216 -267 -468 l-267
-458 -541 0 -540 0 -265 466 c-146 256 -264 468 -263 473 1 4 122 213 268 464
l267 457 541 -2 541 -3 263 -460z"/>
<path d="M1951 5343 c-30 -15 -76 -89 -330 -523 -254 -435 -295 -511 -295
-545 0 -34 43 -114 283 -535 156 -272 294 -506 307 -520 l24 -25 278 -6 c152
-4 420 -7 595 -8 268 -1 324 1 351 14 28 14 76 89 330 526 234 400 298 517
298 544 0 26 -53 128 -233 442 -327 573 -354 617 -382 630 -16 8 -217 13 -608
18 -554 6 -586 6 -618 -12z m1401 -583 c137 -239 256 -449 265 -466 l15 -31
-268 -462 -269 -461 -540 0 -541 0 -264 462 c-145 254 -263 466 -263 473 0 9
197 352 465 808 l69 117 541 -2 540 -3 250 -435z"/>
<path d="M5810 5343 c-31 -16 -71 -80 -330 -523 -255 -437 -295 -510 -295
-545 1 -34 46 -118 290 -544 189 -329 300 -512 318 -525 28 -21 42 -21 635
-26 334 -3 613 -9 620 -13 7 -5 12 -3 12 5 0 7 11 -12 24 -42 41 -98 573
-1014 601 -1035 26 -19 42 -20 630 -20 580 0 604 1 624 19 12 11 153 245 314
520 251 430 292 507 292 541 0 34 -42 114 -283 535 -156 272 -297 509 -313
525 l-29 30 -578 3 c-317 2 -591 0 -608 -3 -34 -6 -107 -68 -96 -80 4 -5 1 -5
-7 0 -12 7 -12 10 0 19 16 13 21 28 22 77 1 30 -47 121 -290 545 -176 308
-302 517 -318 529 -26 19 -44 20 -613 23 -544 2 -590 1 -622 -15z m1417 -608
c145 -253 263 -464 263 -469 0 -5 -120 -216 -267 -468 l-268 -458 -540 0 -540
0 -265 466 c-146 256 -264 469 -263 473 1 4 122 213 268 465 l267 456 541 -2
541 -3 263 -460z m390 -600 c-9 -7 -14 -15 -10 -18 3 -4 1 -7 -6 -7 -7 0 -10
-4 -6 -10 3 -5 -2 -18 -12 -28 -10 -10 -19 -25 -21 -33 -2 -8 -10 -19 -17 -25
-8 -6 -12 -14 -8 -17 3 -4 1 -7 -6 -7 -7 0 -10 -4 -6 -10 3 -5 -2 -18 -12 -28
-10 -10 -19 -25 -21 -33 -2 -8 -10 -19 -17 -25 -8 -6 -12 -14 -8 -17 3 -4 1
-7 -6 -7 -7 0 -10 -4 -6 -10 3 -5 -2 -18 -12 -28 -10 -10 -19 -25 -21 -33 -2
-8 -10 -19 -17 -25 -8 -6 -12 -14 -8 -17 3 -4 1 -7 -6 -7 -7 0 -10 -4 -6 -10
3 -5 -2 -18 -12 -28 -10 -10 -19 -25 -21 -33 -2 -8 -10 -19 -17 -25 -8 -6 -12
-14 -8 -17 3 -4 1 -7 -6 -7 -7 0 -10 -4 -6 -10 3 -5 -2 -18 -12 -28 -10 -10
-19 -25 -21 -33 -2 -8 -10 -19 -17 -25 -8 -6 -12 -14 -8 -17 3 -4 1 -7 -6 -7
-7 0 -10 -4 -6 -10 3 -5 -2 -18 -12 -28 -10 -10 -19 -25 -21 -33 -2 -8 -10
-19 -17 -25 -8 -6 -12 -14 -8 -17 3 -4 1 -7 -6 -7 -7 0 -10 -4 -6 -10 3 -5 -3
-18 -14 -29 -11 -11 -17 -22 -14 -25 4 -3 1 -6 -6 -6 -7 0 -9 -5 -6 -10 3 -6
-1 -13 -9 -16 -9 -3 -13 -10 -10 -15 3 -5 0 -9 -6 -9 -6 0 -9 -4 -5 -10 3 -5
-3 -18 -13 -28 -10 -10 -17 -25 -14 -33 3 -11 2 -11 -6 -1 -7 10 -11 10 -22
-3 -7 -8 -20 -15 -29 -15 -13 1 -12 3 4 12 26 14 69 61 73 79 2 8 10 20 19 27
9 6 14 12 10 12 -4 0 -1 14 8 30 9 17 20 30 26 30 6 0 8 4 4 10 -3 5 2 18 12
28 10 10 19 25 21 32 6 26 54 100 65 100 6 0 8 3 4 6 -8 9 21 64 34 64 6 0 8
4 4 10 -3 5 2 18 12 28 10 10 19 25 21 32 5 21 53 100 61 100 4 0 8 6 8 13 0
16 53 107 62 107 4 0 8 6 8 13 0 20 53 107 66 107 6 0 8 3 4 6 -8 9 21 64 34
64 6 0 8 4 4 10 -3 5 3 18 14 29 11 11 16 23 13 27 -4 4 -1 4 7 -1 12 -7 11
-10 -2 -20z m1256 -82 c17 -28 356 -618 513 -894 1 -3 -118 -212 -265 -465
l-268 -459 -543 0 -542 0 -195 340 c-351 613 -335 582 -317 616 24 46 505 872
516 887 8 9 129 12 544 12 l534 0 23 -37z"/>
<path d="M9631 5342 c-30 -15 -75 -86 -329 -522 -235 -401 -296 -512 -296
-541 0 -29 54 -131 284 -535 157 -274 295 -510 307 -524 l21 -25 279 -6 c153
-4 422 -7 598 -8 286 -1 324 1 354 17 29 15 75 88 329 522 253 433 295 511
295 545 0 34 -42 113 -287 540 -158 275 -296 509 -307 520 -18 19 -37 20 -327
26 -169 4 -437 7 -597 8 -258 1 -294 -1 -324 -17z m1389 -554 c129 -226 249
-436 267 -467 l31 -56 -268 -460 -268 -460 -543 0 -543 0 -236 412 c-129 226
-248 436 -264 466 l-29 54 269 461 269 462 540 0 540 0 235 -412z"/>
<path d="M5180 4410 c-6 -11 -8 -20 -6 -20 3 0 10 9 16 20 6 11 8 20 6 20 -3
0 -10 -9 -16 -20z"/>
<path d="M3988 4303 c12 -2 30 -2 40 0 9 3 -1 5 -23 4 -22 0 -30 -2 -17 -4z"/>
<path d="M8860 4290 l-75 -6 60 -3 c71 -4 87 -2 100 10 6 6 6 8 0 7 -6 -1 -44
-4 -85 -8z"/>
<path d="M7833 4283 c15 -2 37 -2 50 0 12 2 0 4 -28 4 -27 0 -38 -2 -22 -4z"/>
<path d="M7848 4263 c7 -3 16 -2 19 1 4 3 -2 6 -13 5 -11 0 -14 -3 -6 -6z"/>
<path d="M3881 4233 c-30 -16 -75 -88 -329 -523 -229 -393 -295 -513 -296
-541 0 -30 50 -124 290 -544 182 -319 301 -517 318 -530 27 -20 41 -20 614
-23 547 -2 589 -1 621 15 30 16 76 89 329 523 256 439 295 510 295 545 -1 34
-46 119 -290 545 -180 312 -300 512 -317 525 -27 19 -42 20 -614 23 -546 2
-589 1 -621 -15z m1314 -429 c89 -154 209 -364 267 -466 l105 -184 -271 -464
-271 -463 -42 1 c-24 0 -267 1 -540 1 l-498 1 -252 443 c-138 243 -257 454
-264 469 -12 29 -16 22 442 806 l83 142 540 -2 539 -3 162 -281z"/>
<path d="M5790 3076 c-17 -10 -120 -176 -319 -518 -250 -427 -295 -509 -295
-543 -1 -34 39 -109 284 -538 157 -275 295 -509 308 -522 12 -12 36 -25 53
-29 18 -3 289 -6 603 -6 438 0 577 3 596 13 18 9 98 137 268 427 352 602 354
605 354 643 0 25 -69 154 -282 527 -155 272 -295 509 -311 525 l-29 30 -603 2
c-496 2 -606 0 -627 -11z m1164 -156 c22 -24 526 -907 525 -922 0 -7 -121
-218 -267 -468 l-267 -455 -360 -3 c-198 -2 -442 0 -542 3 l-183 7 -264 464
-265 463 272 467 272 466 532 -3 c456 -4 534 -6 547 -19z"/>
</g>
</svg>
